<svg width="182" height="55" viewBox="0 0 182 55" fill="none" xmlns="http://www.w3.org/2000/svg">
<path d="M68.175 32.7325C68.58 32.7325 68.925 32.685 69.21 32.59C69.5 32.495 69.735 32.365 69.915 32.2C70.1 32.035 70.235 31.84 70.32 31.615C70.405 31.385 70.4475 31.135 70.4475 30.865C70.4475 30.33 70.2625 29.91 69.8925 29.605C69.5225 29.295 68.95 29.14 68.175 29.14H65.925V32.7325H68.175ZM65.925 24.4825V28.0075H67.7625C68.5475 28.0075 69.13 27.85 69.51 27.535C69.895 27.215 70.0875 26.785 70.0875 26.245C70.0875 25.63 69.905 25.1825 69.54 24.9025C69.175 24.6225 68.6075 24.4825 67.8375 24.4825H65.925ZM67.8375 23.23C68.5125 23.23 69.09 23.295 69.57 23.425C70.055 23.555 70.4525 23.7425 70.7625 23.9875C71.0725 24.2325 71.3 24.53 71.445 24.88C71.595 25.225 71.67 25.6175 71.67 26.0575C71.67 26.3175 71.63 26.5675 71.55 26.8075C71.47 27.0475 71.3475 27.2725 71.1825 27.4825C71.0175 27.6875 70.81 27.8725 70.56 28.0375C70.31 28.2025 70.015 28.34 69.675 28.45C71.24 28.76 72.0225 29.5775 72.0225 30.9025C72.0225 31.3625 71.9375 31.7825 71.7675 32.1625C71.5975 32.5375 71.35 32.8625 71.025 33.1375C70.7 33.4125 70.3 33.625 69.825 33.775C69.35 33.925 68.81 34 68.205 34H64.3275V23.23H67.8375ZM77.0237 34H75.4187V23.23H77.0237V34ZM84.8789 32.7325C85.2839 32.7325 85.6289 32.685 85.9139 32.59C86.2039 32.495 86.4389 32.365 86.6189 32.2C86.8039 32.035 86.9389 31.84 87.0239 31.615C87.1089 31.385 87.1514 31.135 87.1514 30.865C87.1514 30.33 86.9664 29.91 86.5964 29.605C86.2264 29.295 85.6539 29.14 84.8789 29.14H82.6289V32.7325H84.8789ZM82.6289 24.4825V28.0075H84.4664C85.2514 28.0075 85.8339 27.85 86.2139 27.535C86.5989 27.215 86.7914 26.785 86.7914 26.245C86.7914 25.63 86.6089 25.1825 86.2439 24.9025C85.8789 24.6225 85.3114 24.4825 84.5414 24.4825H82.6289ZM84.5414 23.23C85.2164 23.23 85.7939 23.295 86.2739 23.425C86.7589 23.555 87.1564 23.7425 87.4664 23.9875C87.7764 24.2325 88.0039 24.53 88.1489 24.88C88.2989 25.225 88.3739 25.6175 88.3739 26.0575C88.3739 26.3175 88.3339 26.5675 88.2539 26.8075C88.1739 27.0475 88.0514 27.2725 87.8864 27.4825C87.7214 27.6875 87.5139 27.8725 87.2639 28.0375C87.0139 28.2025 86.7189 28.34 86.3789 28.45C87.9439 28.76 88.7264 29.5775 88.7264 30.9025C88.7264 31.3625 88.6414 31.7825 88.4714 32.1625C88.3014 32.5375 88.0539 32.8625 87.7289 33.1375C87.4039 33.4125 87.0039 33.625 86.5289 33.775C86.0539 33.925 85.5139 34 84.9089 34H81.0314V23.23H84.5414ZM98.2876 32.6575V34H92.1226V23.23H93.7201V32.6575H98.2876ZM102.797 34H101.192V23.23H102.797V34ZM116.84 28.615C116.84 29.42 116.71 30.16 116.45 30.835C116.195 31.505 115.833 32.085 115.363 32.575C114.893 33.06 114.33 33.4375 113.675 33.7075C113.02 33.9775 112.293 34.1125 111.493 34.1125C110.698 34.1125 109.97 33.9775 109.31 33.7075C108.655 33.4375 108.093 33.06 107.623 32.575C107.158 32.085 106.795 31.505 106.535 30.835C106.275 30.16 106.145 29.42 106.145 28.615C106.145 27.815 106.275 27.0775 106.535 26.4025C106.795 25.7275 107.158 25.1475 107.623 24.6625C108.093 24.1725 108.655 23.7925 109.31 23.5225C109.97 23.2475 110.698 23.11 111.493 23.11C112.293 23.11 113.02 23.2475 113.675 23.5225C114.33 23.7925 114.893 24.1725 115.363 24.6625C115.833 25.1475 116.195 25.7275 116.45 26.4025C116.71 27.0775 116.84 27.815 116.84 28.615ZM115.205 28.615C115.205 27.975 115.118 27.4 114.943 26.89C114.768 26.38 114.518 25.9475 114.193 25.5925C113.873 25.2375 113.483 24.965 113.023 24.775C112.568 24.585 112.058 24.49 111.493 24.49C110.928 24.49 110.415 24.585 109.955 24.775C109.5 24.965 109.11 25.2375 108.785 25.5925C108.46 25.9475 108.21 26.38 108.035 26.89C107.86 27.4 107.773 27.975 107.773 28.615C107.773 29.26 107.86 29.8375 108.035 30.3475C108.21 30.8525 108.46 31.2825 108.785 31.6375C109.11 31.9925 109.5 32.265 109.955 32.455C110.415 32.64 110.928 32.7325 111.493 32.7325C112.058 32.7325 112.568 32.64 113.023 32.455C113.483 32.265 113.873 31.9925 114.193 31.6375C114.518 31.2825 114.768 30.8525 114.943 30.3475C115.118 29.8375 115.205 29.26 115.205 28.615ZM129.016 23.23V34H127.419V29.1475H121.801V34H120.196V23.23H121.801V27.985H127.419V23.23H129.016ZM138.753 29.9875L137.155 25.81C137.04 25.525 136.925 25.165 136.81 24.73C136.755 24.945 136.698 25.145 136.638 25.33C136.583 25.515 136.528 25.68 136.473 25.825L134.883 29.9875H138.753ZM141.91 34H140.68C140.54 34 140.425 33.965 140.335 33.895C140.245 33.825 140.18 33.735 140.14 33.625L139.188 31.1275H134.44L133.488 33.625C133.453 33.72 133.388 33.8075 133.293 33.8875C133.198 33.9625 133.083 34 132.948 34H131.718L136.008 23.23H137.62L141.91 34ZM147.658 28.42C148.068 28.42 148.428 28.37 148.738 28.27C149.053 28.17 149.315 28.03 149.525 27.85C149.735 27.665 149.893 27.4475 149.998 27.1975C150.103 26.9425 150.155 26.6625 150.155 26.3575C150.155 25.7375 149.95 25.27 149.54 24.955C149.135 24.64 148.525 24.4825 147.71 24.4825H146.203V28.42H147.658ZM152.683 34H151.258C150.973 34 150.765 33.8875 150.635 33.6625L147.973 29.9275C147.888 29.8025 147.795 29.715 147.695 29.665C147.595 29.61 147.445 29.5825 147.245 29.5825H146.203V34H144.605V23.23H147.71C148.405 23.23 149.003 23.3025 149.503 23.4475C150.008 23.5875 150.423 23.79 150.748 24.055C151.078 24.315 151.32 24.63 151.475 25C151.635 25.37 151.715 25.785 151.715 26.245C151.715 26.62 151.658 26.9725 151.543 27.3025C151.428 27.6325 151.258 27.93 151.033 28.195C150.813 28.455 150.543 28.68 150.223 28.87C149.903 29.06 149.54 29.205 149.135 29.305C149.335 29.425 149.508 29.5925 149.653 29.8075L152.683 34ZM161.14 29.9875L159.543 25.81C159.428 25.525 159.313 25.165 159.198 24.73C159.143 24.945 159.085 25.145 159.025 25.33C158.97 25.515 158.915 25.68 158.86 25.825L157.27 29.9875H161.14ZM164.298 34H163.068C162.928 34 162.813 33.965 162.723 33.895C162.633 33.825 162.568 33.735 162.528 33.625L161.575 31.1275H156.828L155.875 33.625C155.84 33.72 155.775 33.8075 155.68 33.8875C155.585 33.9625 155.47 34 155.335 34H154.105L158.395 23.23H160.008L164.298 34Z" fill="#222831"/>
<g clip-path="url(#clip0_1_36)">
<path d="M2.12974 38.1C3.62742 25.8517 9.87024 21.923 15.4601 18.4419C21.1681 14.8859 26.105 11.7712 25.5111 0.0688477C22.9074 0.254925 20.3438 0.81311 17.8985 1.72639C18.1469 11.0138 13.7473 13.7681 9.47799 16.4278C4.96895 19.2363 0.709517 21.8898 0.442688 32.3613C0.79928 34.3545 1.36614 36.2789 2.12974 38.1Z" fill="#222831"/>
<path d="M8.17702 14.3399C12.1561 11.8598 15.374 9.83087 15.4466 2.78265C8.20407 6.33258 2.74453 12.9738 0.790649 20.9762C2.79617 17.6943 5.58374 15.9544 8.17702 14.3399ZM8.90373 47.7378C9.87268 34.6841 15.6003 30.1283 21.1545 25.7177C27.1883 20.927 32.8901 16.3872 32.5691 0.46111C31.0502 0.17862 29.5102 0.024373 27.9654 0C28.6024 13.1091 22.5956 16.8938 16.7598 20.5286C10.8478 24.2114 4.74636 28.0343 4.27664 42.1959C5.5705 44.2372 7.12609 46.1004 8.90373 47.7378ZM38.3545 33.3856C43.8657 28.9626 49.0646 24.7524 48.7867 10.0756C47.3009 8.2671 45.5921 6.65411 43.701 5.2751C43.6235 21.3094 37.3905 26.3214 31.3493 31.1686C25.6636 35.7317 20.2962 40.049 19.9027 53.9351C22.1702 54.5868 24.5544 54.957 27.0186 55.0012C27.6666 42.0004 33.0905 37.6118 38.3545 33.3856ZM47.5915 39.1218C43.6444 41.527 40.2211 43.6358 39.8227 52.0932C47.3911 48.2899 52.9699 41.0991 54.5586 32.5175C52.7854 35.9531 50.0962 37.5959 47.5915 39.1218Z" fill="#222831"/>
<path d="M46.3127 37.0229C50.5402 34.4456 54.5352 32.0133 54.0483 20.7045L54.1749 20.6995C53.531 18.1811 52.5306 15.7676 51.2042 13.5321C50.6226 26.6522 45.1851 31.0592 39.8965 35.3038C34.8636 39.3395 30.1161 43.1845 29.4877 54.9324C32.1705 54.7426 34.8106 54.1584 37.3229 53.1986C37.4729 42.4099 42.1676 39.5485 46.3127 37.0229ZM29.8123 29.2504C35.856 24.402 41.5664 19.8093 41.2319 3.66675C39.2846 2.54127 37.206 1.65996 35.0432 1.04272C35.219 17.6919 28.8495 22.7481 22.6842 27.6433C17.0697 32.1007 11.7712 36.3355 11.2659 49.6806C13.1822 51.0883 15.2733 52.2411 17.4866 53.1101C18.094 38.6927 24.0429 33.8799 29.8123 29.2504Z" fill="#222831"/>
</g>
<path d="M57 49.1063C58.8342 47.639 61.8283 47.6114 64.046 46.9847C67.0899 46.1244 69.9454 44.8372 72.9517 43.9201C87.7168 39.4154 103.214 39.1906 118.502 38.629C132.642 38.1096 147.348 37.2756 161.406 39.2315C167.309 40.0528 173.602 41.5627 179.584 41.5627" stroke="#222831" stroke-width="3" stroke-linecap="round"/>
<defs>
<clipPath id="clip0_1_36">
<rect width="55" height="55" fill="white"/>
</clipPath>
</defs>
</svg>
